<svg width="57" height="57" viewBox="0 0 57 57" fill="none" xmlns="http://www.w3.org/2000/svg">
<path d="M28.0273 30.8024V26.1265L30.9498 28.3086L28.0273 30.8024Z" fill="#38413B" stroke="#38413B" stroke-width="0.584491"/>
<path d="M28.4533 7.61752C28.8348 7.61752 29.1126 7.553 29.2865 7.42394C29.4605 7.29489 29.5474 7.11252 29.5474 6.87686C29.5474 6.73658 29.5166 6.61594 29.4549 6.51494C29.3987 6.41394 29.3146 6.32416 29.2024 6.24561C29.0957 6.16144 28.9639 6.08569 28.8068 6.01836C28.6497 5.94541 28.4701 5.87527 28.2681 5.80794C28.0661 5.735 27.8697 5.65644 27.6789 5.57227C27.4938 5.4825 27.3282 5.37308 27.1824 5.24402C27.0421 5.11497 26.9271 4.96066 26.8373 4.78111C26.7531 4.60155 26.711 4.38552 26.711 4.13302C26.711 3.60558 26.8934 3.19316 27.2581 2.89577C27.6228 2.59277 28.1194 2.44127 28.7479 2.44127C29.1126 2.44127 29.4352 2.48336 29.7158 2.56752C30.0019 2.64608 30.2264 2.73305 30.3891 2.82844L30.0609 3.68694C29.8701 3.58033 29.6597 3.49897 29.4296 3.44286C29.2052 3.38675 28.9723 3.35869 28.731 3.35869C28.4449 3.35869 28.2204 3.41761 28.0577 3.53544C27.9006 3.65327 27.822 3.8188 27.822 4.03202C27.822 4.16108 27.8473 4.2733 27.8978 4.36869C27.9539 4.45847 28.0296 4.53983 28.125 4.61277C28.226 4.68572 28.3411 4.75305 28.4701 4.81477C28.6048 4.8765 28.7507 4.93541 28.9078 4.99152C29.1827 5.09252 29.4268 5.19633 29.64 5.30294C29.8589 5.40394 30.0412 5.52739 30.1871 5.67327C30.3386 5.81355 30.4536 5.98189 30.5322 6.17827C30.6107 6.36905 30.65 6.60191 30.65 6.87686C30.65 7.4043 30.4621 7.81391 30.0861 8.10569C29.7158 8.39186 29.1715 8.53494 28.4533 8.53494C28.212 8.53494 27.9904 8.51811 27.7884 8.48444C27.592 8.45639 27.4152 8.41991 27.2581 8.37502C27.1066 8.33014 26.9747 8.28525 26.8625 8.24036C26.7503 8.18986 26.6605 8.14497 26.5932 8.10569L26.9046 7.23877C27.0561 7.32294 27.2609 7.40711 27.519 7.49127C27.7771 7.57544 28.0886 7.61752 28.4533 7.61752Z" fill="#718176"/>
<path d="M34.6542 9.25866L36.8863 3.8699L40.3467 5.30321L40.002 6.13524L37.5215 5.10776L36.9707 6.43746L39.1791 7.3522L38.8409 8.16868L36.6325 7.25394L35.9787 8.83246L38.6458 9.93724L38.3012 10.7693L34.6542 9.25866Z" fill="#718176"/>
<path d="M41.544 13.0335L45.6684 8.90912L48.3168 11.5575L47.68 12.1943L45.7815 10.2958L44.7638 11.3135L46.454 13.0037L45.8291 13.6286L44.1389 11.9384L42.9307 13.1466L44.9721 15.1879L44.3352 15.8247L41.544 13.0335Z" fill="#718176"/>
<path d="M54.5007 29.7322V30.7927H48.668V29.7322H51.2519V27.1988H48.668V26.1383H54.5007V27.1988H52.1693V29.7322H54.5007Z" fill="#718176"/>
<path d="M50.447 35.7917C50.1515 35.6693 49.8669 35.5939 49.5932 35.5656C49.3247 35.5394 49.077 35.5583 48.8501 35.6222C48.6262 35.6934 48.4268 35.8082 48.2519 35.9666C48.077 36.1249 47.938 36.3285 47.8349 36.5773C47.734 36.821 47.6894 37.0606 47.7011 37.2963C47.7129 37.5319 47.7737 37.7515 47.8838 37.955C47.9969 38.1658 48.1576 38.3569 48.366 38.5283C48.5796 38.7018 48.8342 38.8497 49.1297 38.9721C49.4251 39.0945 49.7071 39.1688 49.9757 39.195C50.2494 39.2233 50.4982 39.2019 50.722 39.1306C50.9489 39.0667 51.1498 38.9556 51.3247 38.7972C51.4997 38.6389 51.6376 38.4379 51.7385 38.1942C51.8416 37.9454 51.8872 37.7032 51.8755 37.4675C51.8638 37.2319 51.8014 37.0087 51.6883 36.7978C51.5731 36.5922 51.4112 36.4037 51.2028 36.2323C50.9944 36.061 50.7425 35.9141 50.447 35.7917ZM48.7045 39.9985C48.2431 39.8074 47.8652 39.5689 47.5706 39.2829C47.2739 39.0021 47.0558 38.6931 46.9161 38.3558C46.7794 38.0259 46.717 37.6782 46.7287 37.3126C46.7405 36.9469 46.8204 36.5853 46.9686 36.2276C47.1168 35.8699 47.317 35.555 47.5694 35.283C47.8196 35.0162 48.1107 34.8119 48.4428 34.67C48.7779 34.5355 49.1507 34.4713 49.5612 34.4773C49.9716 34.4834 50.4076 34.582 50.8689 34.7731C51.3303 34.9642 51.7057 35.2016 51.995 35.4855C52.2896 35.7715 52.5067 36.0831 52.6464 36.4203C52.7839 36.7627 52.8468 37.1167 52.8351 37.4824C52.8233 37.848 52.7444 38.207 52.5984 38.5595C52.4524 38.9121 52.2543 39.2217 52.0041 39.4886C51.7538 39.7554 51.4612 39.9561 51.1261 40.0906C50.7889 40.2303 50.415 40.2971 50.0045 40.291C49.5992 40.2871 49.1659 40.1896 48.7045 39.9985Z" fill="#718176"/>
<path d="M46.0107 46.7494C45.7329 46.5986 45.4413 46.4419 45.1358 46.2792C44.8343 46.1205 44.5287 45.9618 44.2193 45.8031C43.9098 45.6523 43.6043 45.5015 43.3027 45.3508C43.0012 45.2079 42.7155 45.073 42.4457 44.9461C42.6005 45.2198 42.775 45.5095 42.9695 45.815C43.1678 46.1245 43.3742 46.4419 43.5884 46.7672C43.8066 47.0965 44.0308 47.4278 44.2609 47.7611C44.4871 48.0984 44.7132 48.4277 44.9394 48.7491L44.1657 49.5228C43.5587 48.638 42.9953 47.7651 42.4755 46.9041C41.9597 46.0471 41.4935 45.2 41.0769 44.3628L41.7911 43.6486C42.902 44.1406 44.0764 44.7159 45.3143 45.3746C44.9811 44.7477 44.6736 44.1426 44.3919 43.5594C44.1102 42.9761 43.8423 42.4068 43.5884 41.8513L44.3026 41.1371C45.1437 41.5498 45.9928 42.014 46.8498 42.5298C47.7068 43.0535 48.5777 43.6189 49.4625 44.2259L48.6591 45.0294C48.3417 44.8072 48.0163 44.581 47.683 44.3509C47.3458 44.1248 47.0125 43.9026 46.6832 43.6844C46.3539 43.4741 46.0325 43.2717 45.719 43.0773C45.4056 42.8829 45.112 42.7083 44.8382 42.5536C44.9652 42.8313 45.1021 43.119 45.2489 43.4165C45.3957 43.722 45.5465 44.0276 45.7012 44.3331C45.8599 44.6425 46.0206 44.9461 46.1833 45.2436C46.342 45.5452 46.4987 45.8328 46.6534 46.1066L46.0107 46.7494Z" fill="#718176"/>
<path d="M29.1425 54.3523H28.082V48.5195H29.1425V54.3523Z" fill="#718176"/>
<path d="M16.5549 51.4921L16.906 50.6445L18.5623 51.3306L20.4433 46.7894L21.4308 47.1985L19.5498 51.7396L21.2061 52.4257L20.855 53.2733L16.5549 51.4921Z" fill="#718176"/>
<path d="M5.06124 37.5419C5.30681 37.343 5.56321 37.1335 5.83041 36.9135C6.09243 36.6956 6.35597 36.4741 6.62103 36.2489C6.87875 36.0207 7.13496 35.7962 7.38965 35.5753C7.63701 35.3513 7.87096 35.139 8.09151 34.9384C7.77936 34.9766 7.44497 35.027 7.08831 35.0897C6.72648 35.1546 6.35427 35.2237 5.9717 35.2971C5.58394 35.3727 5.19207 35.4531 4.79609 35.5381C4.39797 35.618 4.00717 35.7009 3.62371 35.7869L3.20499 34.776C4.25474 34.5537 5.27678 34.3673 6.27113 34.2166C7.26029 34.068 8.22131 33.9614 9.15419 33.8969L9.5407 34.83C8.66102 35.6681 7.68007 36.533 6.59785 37.4246C7.30456 37.3566 7.98124 37.3041 8.6279 37.267C9.27455 37.23 9.90306 37.2004 10.5134 37.1784L10.8999 38.1115C10.1968 38.7307 9.443 39.3375 8.63851 39.9319C7.82668 40.5233 6.97105 41.1115 6.07161 41.6966L5.63679 40.6469C5.96353 40.4386 6.29698 40.2246 6.63713 40.0048C6.97513 39.7797 7.30794 39.5568 7.63558 39.3361C7.95588 39.1123 8.26581 38.8928 8.56538 38.6777C8.86495 38.4625 9.13859 38.258 9.38632 38.0643C9.08114 38.0753 8.763 38.0917 8.43189 38.1135C8.09346 38.1322 7.75351 38.1546 7.41204 38.1806C7.06539 38.2088 6.72347 38.2411 6.3863 38.2775C6.04697 38.3088 5.72124 38.3435 5.40909 38.3817L5.06124 37.5419Z" fill="#718176"/>
<path d="M5.63606 30.1906C5.95589 30.1906 6.24767 30.1514 6.51139 30.0728C6.7695 29.9942 6.99114 29.882 7.17631 29.7361C7.35586 29.5846 7.49614 29.4023 7.59714 29.1891C7.69814 28.9758 7.74864 28.7346 7.74864 28.4652C7.74864 28.2015 7.69814 27.963 7.59714 27.7498C7.49614 27.5366 7.35586 27.357 7.17631 27.2111C6.99114 27.0596 6.7695 26.9446 6.51139 26.8661C6.24767 26.7875 5.95589 26.7482 5.63606 26.7482C5.31622 26.7482 5.02725 26.7875 4.76914 26.8661C4.50542 26.9446 4.28378 27.0596 4.10422 27.2111C3.91906 27.357 3.77597 27.5366 3.67497 27.7498C3.57397 27.963 3.52347 28.2015 3.52347 28.4652C3.52347 28.7346 3.57397 28.9758 3.67497 29.1891C3.77597 29.4023 3.91906 29.5846 4.10422 29.7361C4.28939 29.882 4.51103 29.9942 4.76914 30.0728C5.02725 30.1514 5.31622 30.1906 5.63606 30.1906ZM5.63606 25.6372C6.13545 25.6372 6.57592 25.713 6.95747 25.8645C7.33903 26.0104 7.65886 26.2124 7.91697 26.4705C8.16947 26.723 8.36025 27.0204 8.48931 27.3626C8.61836 27.7049 8.68289 28.0696 8.68289 28.4568C8.68289 28.844 8.61836 29.2115 8.48931 29.5594C8.36025 29.9017 8.16947 30.2019 7.91697 30.46C7.65886 30.7125 7.33903 30.9145 6.95747 31.066C6.57592 31.2175 6.13545 31.2932 5.63606 31.2932C5.13667 31.2932 4.699 31.2175 4.32306 31.066C3.9415 30.9145 3.62167 30.7097 3.36356 30.4516C3.10545 30.1878 2.91186 29.8848 2.78281 29.5426C2.65375 29.2003 2.58922 28.8384 2.58922 28.4568C2.58922 28.0752 2.65375 27.7133 2.78281 27.3711C2.91186 27.0288 3.10545 26.7314 3.36356 26.4789C3.62167 26.2208 3.9415 26.016 4.32306 25.8645C4.699 25.713 5.13667 25.6372 5.63606 25.6372Z" fill="#718176"/>
<path d="M4.54677 18.7613C4.86886 17.9837 5.25728 17.4492 5.71204 17.1578C6.16894 16.8611 6.69029 16.8341 7.27608 17.0768C8.00702 17.3796 8.35286 17.9449 8.31358 18.7728C8.47361 18.7237 8.66493 18.6724 8.88754 18.6189C9.11015 18.5653 9.34938 18.5156 9.60524 18.4697C9.85591 18.4217 10.1122 18.3821 10.3741 18.3509C10.6309 18.3176 10.8797 18.2961 11.1205 18.2866L10.6664 19.383C10.4389 19.4042 10.2083 19.4332 9.97442 19.4699C9.73538 19.5045 9.50303 19.5449 9.27739 19.5911C9.04871 19.63 8.83299 19.6743 8.63023 19.7239C8.42229 19.7714 8.23571 19.8186 8.07049 19.8656C8.04561 19.9403 8.02244 20.0036 8.00097 20.0554C7.97949 20.1073 7.95909 20.1565 7.93977 20.2032L7.74329 20.6775L9.7806 21.5214L9.37477 22.5012L4.06377 20.3013C4.1107 20.0413 4.18222 19.7734 4.27833 19.4974C4.36925 19.2192 4.45873 18.9738 4.54677 18.7613ZM5.42334 19.0424C5.33745 19.2498 5.26578 19.4448 5.20832 19.6275L6.95014 20.349L7.12729 19.9213C7.22607 19.6828 7.30007 19.4675 7.34931 19.2753C7.39854 19.0832 7.41416 18.9135 7.39615 18.7663C7.3803 18.614 7.32823 18.4831 7.23995 18.3737C7.15167 18.2642 7.0194 18.173 6.84314 18.1C6.67725 18.0313 6.5244 18.0044 6.38459 18.0194C6.24477 18.0343 6.11647 18.0875 5.9997 18.1788C5.88506 18.2649 5.7815 18.383 5.68902 18.533C5.59135 18.6808 5.50279 18.8506 5.42334 19.0424Z" fill="#718176"/>
<path d="M15.5484 13.1643C15.2865 13.1087 15.0008 13.0611 14.6914 13.0214C14.3819 12.9817 14.0704 12.956 13.757 12.944C13.4475 12.9282 13.14 12.9262 12.8345 12.9381C12.529 12.95 12.2453 12.9798 11.9834 13.0274L13.8344 14.8783L13.0845 15.6282L8.96009 11.5038L9.70998 10.7539L11.4121 12.456C11.4121 12.1942 11.4101 11.9184 11.4062 11.6288C11.3982 11.3352 11.3883 11.0435 11.3764 10.7539C11.3645 10.4563 11.3506 10.1726 11.3347 9.90284C11.3189 9.63304 11.305 9.38903 11.2931 9.17081L12.1917 8.27213C12.2116 8.55384 12.2294 8.84943 12.2453 9.1589C12.2612 9.46838 12.2751 9.78381 12.287 10.1052C12.2949 10.4226 12.3009 10.742 12.3048 11.0634C12.3128 11.3808 12.3147 11.6883 12.3108 11.9859C12.6044 11.9462 12.9218 11.9263 13.263 11.9263C13.6042 11.9184 13.9554 11.9283 14.3164 11.9561C14.6735 11.9799 15.0326 12.0216 15.3936 12.0811C15.7547 12.1327 16.1019 12.1981 16.4352 12.2775L15.5484 13.1643Z" fill="#718176"/>
<path d="M20.4866 9.26582C20.8391 9.11981 21.071 8.9539 21.1823 8.7681C21.2936 8.5823 21.3042 8.38054 21.214 8.16281C21.1603 8.03321 21.0856 7.93357 20.99 7.86388C20.8995 7.79204 20.7874 7.7413 20.6536 7.71167C20.5229 7.67471 20.3721 7.65519 20.2012 7.6531C20.0281 7.64584 19.8354 7.64975 19.623 7.66484C19.4085 7.67475 19.197 7.67733 18.9885 7.67258C18.7831 7.6605 18.5883 7.62275 18.4041 7.55935C18.2251 7.4938 18.0598 7.39526 17.9081 7.26373C17.7617 7.13005 17.6401 6.94657 17.5435 6.71329C17.3416 6.226 17.3523 5.77519 17.5754 5.36086C17.7965 4.94135 18.1973 4.61135 18.7779 4.37086C19.1148 4.23128 19.429 4.14669 19.7204 4.11709C20.0149 4.08016 20.2555 4.07462 20.4423 4.10047L20.4676 5.01924C20.2506 4.99375 20.025 4.99911 19.791 5.0353C19.5622 5.06936 19.3363 5.13255 19.1134 5.22488C18.849 5.33439 18.6642 5.47472 18.559 5.64585C18.4589 5.81484 18.4497 5.99783 18.5313 6.19482C18.5806 6.31405 18.6469 6.40807 18.7301 6.47687C18.8163 6.53834 18.9174 6.58452 19.0334 6.61541C19.1547 6.64415 19.2867 6.66234 19.4296 6.66998C19.5776 6.67546 19.7349 6.67407 19.9015 6.66578C20.1942 6.65388 20.4594 6.65638 20.6972 6.67327C20.9381 6.68284 21.1538 6.7271 21.3444 6.80606C21.538 6.87768 21.7087 6.98918 21.8565 7.14056C22.002 7.28675 22.1274 7.48686 22.2327 7.74087C22.4345 8.22817 22.4176 8.67853 22.1819 9.09197C21.9493 9.49807 21.5012 9.83855 20.8377 10.1134C20.6147 10.2057 20.4035 10.275 20.204 10.3212C20.0118 10.3704 19.8346 10.4044 19.6723 10.423C19.5151 10.4395 19.3761 10.4485 19.2553 10.45C19.1323 10.4463 19.0321 10.4392 18.9549 10.4287L18.9108 9.50855C19.083 9.52833 19.3044 9.52772 19.5751 9.5067C19.8458 9.48569 20.1496 9.40539 20.4866 9.26582Z" fill="#718176"/>
<circle cx="37.3799" cy="50.0904" r="1.16898" fill="#626C65"/>
<circle cx="49.6534" cy="18.5279" r="1.16898" fill="#626C65"/>
<circle cx="12.2461" cy="45.4146" r="1.16898" fill="#626C65"/>
</svg>
